<svg xmlns="http://www.w3.org/2000/svg" width="180" height="34" viewBox="0 0 180 34" fill="none">
  <path d="M16.0489 2.92705C16.3483 2.00574 17.6517 2.00574 17.9511 2.92705L20.5922 11.0557C20.7261 11.4678 21.1101 11.7467 21.5433 11.7467L30.0903 11.7467C31.059 11.7467 31.4618 12.9863 30.6781 13.5557L23.7634 18.5795C23.4129 18.8342 23.2663 19.2855 23.4001 19.6976L26.0413 27.8262C26.3406 28.7475 25.2862 29.5137 24.5025 28.9443L17.5878 23.9205C17.2373 23.6658 16.7627 23.6658 16.4122 23.9205L9.49755 28.9443C8.71383 29.5137 7.65936 28.7475 7.95871 27.8262L10.5999 19.6976C10.7337 19.2855 10.5871 18.8342 10.2366 18.5795L3.32194 13.5557C2.53822 12.9863 2.941 11.7467 3.90972 11.7467L12.4567 11.7467C12.8899 11.7467 13.2739 11.4678 13.4078 11.0557L16.0489 2.92705Z" fill="#FDAF3B"/>
</svg>